<svg xmlns="http://www.w3.org/2000/svg" viewBox="0 0 512 512">
  <defs>
    <linearGradient id="bg" x1="0" y1="0" x2="1" y2="1">
      <stop offset="0%" stop-color="#03171b"/>
      <stop offset="100%" stop-color="#0a6370"/>
    </linearGradient>
    <linearGradient id="accent" x1="0" y1="0" x2="1" y2="0">
      <stop offset="0%" stop-color="#12c7d2"/>
      <stop offset="100%" stop-color="#74f4ff"/>
    </linearGradient>
  </defs>
  <rect width="512" height="512" rx="110" fill="url(#bg)"/>
  <circle cx="256" cy="256" r="182" fill="none" stroke="rgba(255,255,255,0.08)" stroke-width="16"/>
  <path d="M114 330 164 152h44l50 178h-40l-10-36h-44l-10 36zm58-68h28l-14-56z" fill="#f4fbfd"/>
  <path d="M274 160h58c43 0 74 28 74 78 0 55-34 92-92 92h-40zm40 34v104h11c25 0 40-20 40-52 0-34-15-52-40-52z" fill="url(#accent)"/>
  <rect x="108" y="364" width="296" height="20" rx="10" fill="url(#accent)" opacity=".85"/>
</svg>
